<svg width="60" height="56" viewBox="0 0 60 56" fill="none" xmlns="http://www.w3.org/2000/svg">
<g filter="url(#filter0_d_75_124)">
<rect width="52" height="48" rx="10" fill="#F5F5DC"/>
<path d="M11 14.625C11 12.5566 12.6816 10.875 14.75 10.875H37.25C39.3184 10.875 41 12.5566 41 14.625V33.375C41 35.4434 39.3184 37.125 37.25 37.125H14.75C12.6816 37.125 11 35.4434 11 33.375V14.625ZM29.9727 20.8652C29.709 20.4785 29.2754 20.25 28.8125 20.25C28.3496 20.25 27.9102 20.4785 27.6523 20.8652L22.5547 28.3418L21.002 26.4023C20.7324 26.0684 20.3281 25.875 19.9062 25.875C19.4844 25.875 19.0742 26.0684 18.8105 26.4023L15.0605 31.0898C14.7207 31.5117 14.6562 32.0918 14.8906 32.5781C15.125 33.0645 15.6172 33.375 16.1562 33.375H21.7812H23.6562H35.8438C36.3652 33.375 36.8457 33.0879 37.0859 32.625C37.3262 32.1621 37.2969 31.6055 37.0039 31.1777L29.9727 20.8652ZM17.5625 20.25C18.3084 20.25 19.0238 19.9537 19.5512 19.4262C20.0787 18.8988 20.375 18.1834 20.375 17.4375C20.375 16.6916 20.0787 15.9762 19.5512 15.4488C19.0238 14.9213 18.3084 14.625 17.5625 14.625C16.8166 14.625 16.1012 14.9213 15.5738 15.4488C15.0463 15.9762 14.75 16.6916 14.75 17.4375C14.75 18.1834 15.0463 18.8988 15.5738 19.4262C16.1012 19.9537 16.8166 20.25 17.5625 20.25Z" fill="#555555"/>
</g>
<defs>
<filter id="filter0_d_75_124" x="0" y="0" width="60" height="56" filterUnits="userSpaceOnUse" color-interpolation-filters="sRGB">
<feFlood flood-opacity="0" result="BackgroundImageFix"/>
<feColorMatrix in="SourceAlpha" type="matrix" values="0 0 0 0 0 0 0 0 0 0 0 0 0 0 0 0 0 0 127 0" result="hardAlpha"/>
<feOffset dx="4" dy="4"/>
<feGaussianBlur stdDeviation="2"/>
<feComposite in2="hardAlpha" operator="out"/>
<feColorMatrix type="matrix" values="0 0 0 0 0 0 0 0 0 0 0 0 0 0 0 0 0 0 0.25 0"/>
<feBlend mode="normal" in2="BackgroundImageFix" result="effect1_dropShadow_75_124"/>
<feBlend mode="normal" in="SourceGraphic" in2="effect1_dropShadow_75_124" result="shape"/>
</filter>
</defs>
</svg>
