<svg width="80" height="80" viewBox="0 0 80 80" fill="none" xmlns="http://www.w3.org/2000/svg">
<rect width="80" height="80" rx="40" fill="#14AD47"/>
<path d="M32.9389 51V48.1449L40.5135 40.7195C41.2379 39.9879 41.8416 39.3381 42.3246 38.7699C42.8075 38.2017 43.1697 37.6513 43.4112 37.1186C43.6527 36.5859 43.7734 36.0178 43.7734 35.4141C43.7734 34.7251 43.6172 34.1357 43.3047 33.6456C42.9922 33.1484 42.5625 32.7649 42.0156 32.495C41.4688 32.2251 40.8473 32.0902 40.1513 32.0902C39.4339 32.0902 38.8054 32.2393 38.2656 32.5376C37.7259 32.8288 37.3068 33.2443 37.0085 33.7841C36.7173 34.3239 36.5717 34.9666 36.5717 35.7124H32.8111C32.8111 34.3274 33.1271 33.1236 33.7592 32.1009C34.3913 31.0781 35.2614 30.2862 36.3693 29.7251C37.4844 29.1641 38.7628 28.8835 40.2045 28.8835C41.6676 28.8835 42.9531 29.157 44.0611 29.7038C45.169 30.2507 46.0284 31 46.6392 31.9517C47.2571 32.9034 47.5661 33.9901 47.5661 35.2116C47.5661 36.0284 47.4098 36.831 47.0973 37.6193C46.7848 38.4077 46.2344 39.2812 45.446 40.2401C44.6648 41.1989 43.5675 42.3601 42.1541 43.7237L38.3935 47.5483V47.6974H47.8963V51H32.9389Z" fill="white"/>
</svg>
