<svg width="80" height="80" viewBox="0 0 80 80" fill="none" xmlns="http://www.w3.org/2000/svg">
<rect width="80" height="80" rx="40" fill="#B3B3B3"/>
<path d="M39.7692 51.2983C38.2351 51.2983 36.8714 51.0355 35.6783 50.5099C34.4922 49.9844 33.5547 49.2528 32.8658 48.3153C32.1768 47.3778 31.8111 46.2947 31.7685 45.0661H35.7741C35.8097 45.6555 36.005 46.1705 36.3601 46.6108C36.7152 47.044 37.1875 47.3814 37.777 47.6229C38.3665 47.8643 39.027 47.9851 39.7585 47.9851C40.5398 47.9851 41.2322 47.8501 41.8359 47.5803C42.4396 47.3033 42.9119 46.9197 43.2528 46.4297C43.5938 45.9396 43.7607 45.375 43.7536 44.7358C43.7607 44.0753 43.5902 43.4929 43.2422 42.9886C42.8942 42.4844 42.3899 42.0902 41.7294 41.8061C41.076 41.522 40.2876 41.38 39.3643 41.38H37.4361V38.3331H39.3643C40.1243 38.3331 40.7884 38.2017 41.3565 37.9389C41.9318 37.6761 42.3828 37.3068 42.7095 36.831C43.0362 36.348 43.196 35.7905 43.1889 35.1584C43.196 34.5405 43.0575 34.0043 42.7734 33.5497C42.4964 33.0881 42.1023 32.7294 41.5909 32.4737C41.0866 32.218 40.4936 32.0902 39.8118 32.0902C39.1442 32.0902 38.5263 32.2109 37.9581 32.4524C37.3899 32.6939 36.9318 33.0384 36.5838 33.4858C36.2358 33.9261 36.0511 34.4517 36.0298 35.0625H32.2266C32.255 33.8409 32.6065 32.7685 33.2812 31.8452C33.9631 30.9148 34.8722 30.1903 36.0085 29.6719C37.1449 29.1463 38.4197 28.8835 39.8331 28.8835C41.2891 28.8835 42.5533 29.157 43.6257 29.7038C44.7053 30.2436 45.5398 30.9716 46.1293 31.8878C46.7188 32.804 47.0135 33.8161 47.0135 34.924C47.0206 36.1527 46.6584 37.1825 45.9268 38.0135C45.2024 38.8445 44.2507 39.3878 43.0717 39.6435V39.8139C44.6058 40.027 45.7813 40.5952 46.598 41.5185C47.4219 42.4347 47.8303 43.5746 47.8232 44.9382C47.8232 46.1598 47.4751 47.2536 46.7791 48.2195C46.0902 49.1783 45.1385 49.9311 43.924 50.478C42.7166 51.0249 41.3317 51.2983 39.7692 51.2983Z" fill="white"/>
</svg>
