<svg xmlns="http://www.w3.org/2000/svg" width="140" height="140" viewBox="0 0 140 140" fill="none">
  <rect width="100" height="100.719" rx="10" fill="#14AD47"/>
  <path d="M40 49.2806C40 43.7577 44.4772 39.2806 50 39.2806H130C135.523 39.2806 140 43.7577 140 49.2806V130C140 135.523 135.523 140 130 140H50C44.4772 140 40 135.523 40 130V49.2806Z" fill="#14AD47"/>
  <path d="M20 29.1367C20 23.6138 24.4772 19.1367 30 19.1367H110C115.523 19.1367 120 23.6138 120 29.1367V109.856C120 115.379 115.523 119.856 110 119.856H30C24.4772 119.856 20 115.379 20 109.856V29.1367Z" fill="#14AD47"/>
  <path d="M40 39.2806H120V109.856C120 115.379 115.523 119.856 110 119.856H40V39.2806Z" fill="white"/>
  <path d="M20 29.1367C20 23.6139 24.4772 19.1367 30 19.1367H100V89.7122C100 95.2351 95.5229 99.7122 90 99.7122H20V29.1367Z" fill="white"/>
  <path d="M40 50.2878C40 44.7649 44.4772 40.2878 50 40.2878H100V90.7194C100 96.2423 95.5228 100.719 90 100.719H40V50.2878Z" fill="#14AD47"/>
</svg>
