    <svg
      class="logo-svg"
      width="220"
      height="40"
      viewBox="0 0 277 54"
      fill="none"
      xmlns="http://www.w3.org/2000/svg"
    >
      <rect
        y="0.0722198"
        width="35.7143"
        height="38.7357"
        rx="10"
        fill="#14AD47"
      />
      <path
        d="M14.2856 25.1791C14.2856 19.6563 18.7628 15.1791 24.2856 15.1791H39.9999C45.5228 15.1791 49.9999 19.6563 49.9999 25.1791V43.9148C49.9999 49.4377 45.5228 53.9148 39.9999 53.9148H24.2857C18.7628 53.9148 14.2856 49.4377 14.2856 43.9148V25.1791Z"
        fill="#14AD47"
      />
      <path
        d="M7.14282 17.432C7.14282 11.9091 11.62 7.43199 17.1428 7.43199H32.8571C38.38 7.43199 42.8571 11.9091 42.8571 17.432V36.1677C42.8571 41.6905 38.38 46.1677 32.8571 46.1677H17.1428C11.62 46.1677 7.14282 41.6905 7.14282 36.1677V17.432Z"
        fill="#14AD47"
      />
      <path
        d="M14.2856 15.1791H42.8571V36.1677C42.8571 41.6905 38.3799 46.1677 32.8571 46.1677H14.2856V15.1791Z"
        fill="white"
      />
      <path
        d="M7.14282 17.432C7.14282 11.9091 11.62 7.43199 17.1428 7.43199H35.7143V28.4205C35.7143 33.9434 31.2371 38.4205 25.7143 38.4205H7.14282V17.432Z"
        fill="white"
      />
      <path
        d="M14.2856 25.5665C14.2856 20.0437 18.7628 15.5665 24.2856 15.5665H35.7142V28.8079C35.7142 34.3307 31.2371 38.8079 25.7142 38.8079H14.2856V25.5665Z"
        fill="#14AD47"
      />
      <path
        d="M84.642 36.6102V14.792H97.8097V17.1358H87.2841V24.5079H97.1278V26.8517H87.2841V34.2664H97.9801V36.6102H84.642ZM111.904 14.792L118.381 33.1585H118.637L125.114 14.792H127.884L119.873 36.6102H117.146L109.134 14.792H111.904ZM139.72 36.6102V14.792H152.888V17.1358H142.362V24.5079H152.206V26.8517H142.362V34.2664H153.058V36.6102H139.72ZM183.388 14.792V36.6102H180.832L168.942 19.4795H168.729V36.6102H166.087V14.792H168.644L180.576 31.9653H180.789V14.792H183.388ZM195.92 17.1358V14.792H212.283V17.1358H205.422V36.6102H202.78V17.1358H195.92ZM227.44 14.792V36.6102H224.798V14.792H227.44ZM241.175 36.6102V14.792H254.258V17.1358H243.817V24.5079H253.278V26.8517H243.817V36.6102H241.175ZM256.908 14.792H259.933L265.984 24.9767H266.24L272.291 14.792H275.317L267.433 27.6187V36.6102H264.791V27.6187L256.908 14.792Z"
        fill="black"
      />
    </svg>