    <svg
      xmlns="http://www.w3.org/2000/svg"
      width="36"
      height="35"
      viewBox="0 0 36 35"
      fill="none"
    >
      <path
        d="M17.9999 34.0481C27.2047 34.0481 34.6666 26.5862 34.6666 17.3815C34.6666 8.17673 27.2047 0.714813 17.9999 0.714813C8.79517 0.714813 1.33325 8.17673 1.33325 17.3815C1.33325 26.5862 8.79517 34.0481 17.9999 34.0481Z"
        fill="#FFFEFE"
      />
      <path
        d="M17.9999 10.7148L11.3333 17.3815L17.9999 24.0481"
        fill="#FFFEFE"
      />
      <path
        d="M17.9999 10.7148L11.3333 17.3815M11.3333 17.3815L17.9999 24.0481M11.3333 17.3815H24.6666M34.6666 17.3815C34.6666 26.5862 27.2047 34.0481 17.9999 34.0481C8.79517 34.0481 1.33325 26.5862 1.33325 17.3815C1.33325 8.17673 8.79517 0.714813 17.9999 0.714813C27.2047 0.714813 34.6666 8.17673 34.6666 17.3815Z"
        stroke="#B3B3B3"
        stroke-linecap="round"
        stroke-linejoin="round"
      />
    </svg>