<svg width="1000" height="400" viewBox="0 0 1000 400" fill="none" xmlns="http://www.w3.org/2000/svg">
<path fill-rule="evenodd" clip-rule="evenodd" d="M178 328.5C120.075 328.5 73 312.75 73 293.5V258.5C73 255.525 74.575 252.55 76.675 249.75C88.4 264.8 129.175 276 178 276C226.825 276 267.6 264.8 279.325 249.75C281.6 252.55 283 255.525 283 258.5V293.5C283 312.75 235.925 328.5 178 328.5ZM178 258.5C120.075 258.5 73 242.75 73 223.5V188.5C73 186.575 73.7 184.825 74.575 183.075C75.1 182.025 75.8 180.8 76.675 179.75C88.4 194.8 129.175 206 178 206C226.825 206 267.6 194.8 279.325 179.75C280.2 180.8 280.9 182.025 281.425 183.075C282.3 184.825 283 186.75 283 188.5V223.5C283 242.75 235.925 258.5 178 258.5ZM178 188.5C120.075 188.5 73 172.75 73 153.5V118.5C73 99.25 120.075 83.5 178 83.5C235.925 83.5 283 99.25 283 118.5V153.5C283 172.75 235.925 188.5 178 188.5ZM178 101C139.325 101 108 108.875 108 118.5C108 128.125 139.325 136 178 136C216.675 136 248 128.125 248 118.5C248 108.875 216.675 101 178 101Z" fill="black" fill-opacity="0.35"/>
<path d="M364.975 184H357.152V120.587H364.843L399.56 170.377H399.955V120.587H407.777V184H400.087L365.37 134.386H364.975V184ZM459.369 176.881V184H420.082V120.587H459.369V127.706H427.992V148.053H457.743V155.084H427.992V176.881H459.369ZM477.65 184H469.828V120.587H477.519L512.235 170.377H512.631V120.587H520.453V184H512.763L478.046 134.386H477.65V184ZM583.383 184H575.473V155.128H540.668V184H532.758V120.587H540.668V148.009H575.473V120.587H583.383V184ZM603.598 120.587V161.236C603.598 166.129 605.121 170.113 608.168 173.189C611.244 176.236 615.478 177.76 620.868 177.76C626.259 177.76 630.478 176.236 633.524 173.189C636.601 170.113 638.139 166.129 638.139 161.236V120.587H646.049V161.764C646.049 168.648 643.778 174.259 639.237 178.595C634.726 182.901 628.603 185.055 620.868 185.055C613.134 185.055 606.996 182.901 602.455 178.595C597.943 174.259 595.688 168.648 595.688 161.764V120.587H603.598ZM720.844 184H713.461V135.133H713.153L692.938 183.561H686.259L666.044 135.133H665.736V184H658.354V120.587H667.538L689.423 173.497H689.774L711.659 120.587H720.844V184ZM759.516 184H751.605V120.587H759.516V184ZM795.771 184H787.86V127.706H767.865V120.587H815.766V127.706H795.771V184ZM863.402 176.881V184H824.115V120.587H863.402V127.706H832.025V148.053H861.776V155.084H832.025V176.881H863.402ZM936.352 184H928.969V135.133H928.661L908.446 183.561H901.767L881.552 135.133H881.244V184H873.861V120.587H883.046L904.931 173.497H905.282L927.167 120.587H936.352V184ZM396.439 283.881V291H357.152V227.587H396.439V234.706H365.062V255.053H394.813V262.084H365.062V283.881H396.439ZM414.721 291H406.898V227.587H414.589L449.306 277.377H449.701V227.587H457.523V291H449.833L415.116 241.386H414.721V291ZM495.932 292.055C487.172 292.055 480.214 289.11 475.058 283.222C469.931 277.304 467.367 269.32 467.367 259.271C467.367 249.311 469.96 241.371 475.146 235.453C480.331 229.506 487.26 226.532 495.932 226.532C502.846 226.532 508.705 228.466 513.51 232.333C518.344 236.171 521.259 241.254 522.255 247.582H514.257C513.231 243.422 511.049 240.097 507.709 237.606C504.369 235.087 500.443 233.827 495.932 233.827C489.75 233.827 484.799 236.142 481.078 240.771C477.357 245.399 475.497 251.566 475.497 259.271C475.497 267.064 477.343 273.261 481.034 277.86C484.726 282.46 489.706 284.76 495.976 284.76C500.634 284.76 504.56 283.69 507.753 281.552C510.946 279.413 513.114 276.41 514.257 272.543H522.255C520.79 278.812 517.787 283.632 513.246 287.001C508.705 290.37 502.934 292.055 495.932 292.055ZM537.021 235.365C542.265 229.477 549.384 226.532 558.378 226.532C567.372 226.532 574.491 229.477 579.735 235.365C584.979 241.254 587.602 249.237 587.602 259.315C587.602 269.394 584.979 277.377 579.735 283.266C574.491 289.125 567.372 292.055 558.378 292.055C549.384 292.055 542.265 289.125 537.021 283.266C531.776 277.377 529.154 269.394 529.154 259.315C529.154 249.237 531.776 241.254 537.021 235.365ZM573.759 240.727C569.979 236.127 564.853 233.827 558.378 233.827C551.903 233.827 546.762 236.127 542.953 240.727C539.174 245.297 537.284 251.493 537.284 259.315C537.284 267.108 539.174 273.305 542.953 277.904C546.762 282.475 551.903 284.76 558.378 284.76C564.853 284.76 569.979 282.475 573.759 277.904C577.567 273.305 579.472 267.108 579.472 259.315C579.472 251.493 577.567 245.297 573.759 240.727ZM605.268 291H597.445V227.587H605.136L639.853 277.377H640.248V227.587H648.07V291H640.38L605.663 241.386H605.268V291ZM684.325 291H676.415V234.706H656.42V227.587H704.32V234.706H684.325V291ZM720.58 234.618V258.92H735.741C739.813 258.92 742.948 257.865 745.146 255.756C747.372 253.646 748.485 250.644 748.485 246.747C748.485 242.938 747.328 239.965 745.014 237.826C742.699 235.688 739.491 234.618 735.39 234.618H720.58ZM720.58 265.907V291H712.67V227.587H736.444C742.567 227.587 747.46 229.315 751.122 232.772C754.813 236.2 756.659 240.771 756.659 246.483C756.659 250.907 755.531 254.73 753.275 257.953C751.02 261.176 747.899 263.417 743.915 264.677L758.593 291H749.32L735.741 265.907H720.58ZM807.855 291L801.483 272.851H776.259L769.887 291H761.581L784.96 227.587H792.782L816.161 291H807.855ZM788.739 237.211L778.588 266.127H799.154L789.003 237.211H788.739ZM823.412 227.587H844.726C854.13 227.587 861.469 230.385 866.742 235.98C872.016 241.547 874.652 249.311 874.652 259.271C874.652 269.262 872.016 277.055 866.742 282.65C861.498 288.217 854.159 291 844.726 291H823.412V227.587ZM831.322 234.706V283.881H844.198C851.376 283.881 856.898 281.771 860.766 277.553C864.633 273.305 866.566 267.24 866.566 259.359C866.566 251.42 864.633 245.326 860.766 241.078C856.928 236.83 851.405 234.706 844.198 234.706H831.322ZM889.901 235.365C895.146 229.477 902.265 226.532 911.259 226.532C920.253 226.532 927.372 229.477 932.616 235.365C937.86 241.254 940.482 249.237 940.482 259.315C940.482 269.394 937.86 277.377 932.616 283.266C927.372 289.125 920.253 292.055 911.259 292.055C902.265 292.055 895.146 289.125 889.901 283.266C884.657 277.377 882.035 269.394 882.035 259.315C882.035 249.237 884.657 241.254 889.901 235.365ZM926.64 240.727C922.86 236.127 917.733 233.827 911.259 233.827C904.784 233.827 899.643 236.127 895.834 240.727C892.055 245.297 890.165 251.493 890.165 259.315C890.165 267.108 892.055 273.305 895.834 277.904C899.643 282.475 904.784 284.76 911.259 284.76C917.733 284.76 922.86 282.475 926.64 277.904C930.448 273.305 932.353 267.108 932.353 259.315C932.353 251.493 930.448 245.297 926.64 240.727Z" fill="black" fill-opacity="0.35"/>
</svg>
