<svg width="198" height="70" viewBox="0 0 198 70" fill="none" xmlns="http://www.w3.org/2000/svg">
<g clip-path="url(#clip0_54_383)">
<path d="M81.7168 65.3623V25.2141C81.7168 21.6671 83.1336 18.2654 85.6555 15.7574C88.1775 13.2493 91.598 11.8403 95.1645 11.8403L107.083 11.8568C110.64 11.8639 114.049 13.2744 116.562 15.7787C119.074 18.2829 120.485 21.6763 120.485 25.2141V33.7579C120.485 37.305 119.068 40.7069 116.546 43.2153C114.024 45.7237 110.604 47.1332 107.037 47.1337H90.1915" stroke="#939598" stroke-width="6.26" stroke-linecap="round" stroke-linejoin="round"/>
<path d="M123.816 11.8382H128.987C130.451 11.8382 131.855 12.4165 132.89 13.446C133.925 14.4754 134.506 15.8716 134.506 17.3274V47.3156" stroke="#939598" stroke-width="6.26" stroke-linecap="round" stroke-linejoin="round"/>
<path d="M133.397 7.19222L131.052 4.85889C130.914 4.72146 130.804 4.55828 130.73 4.37866C130.655 4.19904 130.616 4.00652 130.616 3.81209C130.616 3.61766 130.655 3.42513 130.73 3.24552C130.804 3.0659 130.914 2.90272 131.052 2.76529L133.397 0.434025C133.676 0.155994 134.056 -0.000183105 134.451 -0.000183105C134.847 -0.000183105 135.226 0.155994 135.506 0.434025L137.848 2.76529C137.986 2.90272 138.096 3.0659 138.171 3.24552C138.246 3.42513 138.284 3.61766 138.284 3.81209C138.284 4.00652 138.246 4.19904 138.171 4.37866C138.096 4.55828 137.986 4.72146 137.848 4.85889L135.496 7.19222C135.357 7.32982 135.193 7.43898 135.012 7.51345C134.831 7.58792 134.638 7.62625 134.442 7.62625C134.246 7.62625 134.052 7.58792 133.872 7.51345C133.691 7.43898 133.527 7.32982 133.388 7.19222" fill="#32BCAD"/>
<path d="M144.432 11.8113H149.558C152.196 11.8103 154.725 12.851 156.591 14.7048L168.584 26.6318C168.953 26.9995 169.392 27.2911 169.874 27.4901C170.357 27.6891 170.874 27.7915 171.397 27.7915C171.919 27.7915 172.437 27.6891 172.919 27.4901C173.402 27.2911 173.84 26.9995 174.209 26.6318L186.159 14.7502C187.082 13.8322 188.178 13.1042 189.384 12.6077C190.591 12.1113 191.884 11.8561 193.189 11.8568H197.358" stroke="#939598" stroke-width="6.26" stroke-linecap="round" stroke-linejoin="round"/>
<path d="M144.432 47.0531H149.558C152.196 47.054 154.725 46.0133 156.591 44.1597L168.584 32.2327C169.33 31.4912 170.342 31.0747 171.397 31.0747C172.452 31.0747 173.463 31.4912 174.209 32.2327L186.159 44.1163C188.024 45.9697 190.553 47.0105 193.189 47.0097H197.358" stroke="#939598" stroke-width="6.26" stroke-linecap="round" stroke-linejoin="round"/>
<path d="M51.1492 54.6711C49.8842 54.6756 48.631 54.4309 47.4617 53.9509C46.2924 53.471 45.2304 52.7653 44.337 51.8748L34.4969 42.0827C34.1489 41.7517 33.6859 41.567 33.2043 41.567C32.7228 41.567 32.2598 41.7517 31.9117 42.0827L22.0384 51.9017C21.1455 52.7935 20.0838 53.5005 18.9146 53.9819C17.7453 54.4633 16.4917 54.7095 15.2263 54.7062H13.2998L25.7687 67.1066C27.6388 68.9624 30.1728 70.0047 32.8147 70.0047C35.4566 70.0047 37.9906 68.9624 39.8607 67.1066L52.3545 54.6794L51.1492 54.6711Z" fill="#32BCAD"/>
<path d="M15.2283 20.0659C16.4938 20.0625 17.7474 20.3086 18.9167 20.79C20.086 21.2714 21.1477 21.9785 22.0405 22.8704L31.9138 32.6915C32.257 33.0317 32.7218 33.2228 33.2064 33.2228C33.691 33.2228 34.1558 33.0317 34.499 32.6915L44.337 22.9076C45.2291 22.0146 46.2906 21.3066 47.46 20.8248C48.6294 20.343 49.8834 20.097 51.1492 20.101H52.3337L39.8399 7.67584C38.9147 6.75541 37.8163 6.02528 36.6073 5.52713C35.3983 5.02898 34.1025 4.77258 32.7939 4.77258C31.4853 4.77258 30.1895 5.02898 28.9805 5.52713C27.7715 6.02528 26.6731 6.75541 25.7479 7.67584L13.2998 20.0659H15.2283Z" fill="#32BCAD"/>
<path d="M62.6686 30.3808L55.1187 22.8724C54.9484 22.9416 54.7664 22.9781 54.5825 22.9799H51.1494C49.3629 22.9843 47.6504 23.6899 46.3842 24.9433L36.5462 34.721C35.6602 35.6005 34.4595 36.0945 33.2077 36.0945C31.9558 36.0945 30.7551 35.6005 29.8691 34.721L19.9937 24.9061C18.7279 23.652 17.0153 22.9456 15.2285 22.9406H11.0141C10.8404 22.9367 10.6687 22.9025 10.507 22.8394L2.90926 30.3808C1.04315 32.2406 -0.00488281 34.7607 -0.00488281 37.3881C-0.00488281 40.0154 1.04315 42.5355 2.90926 44.3953L10.4904 51.9347C10.6517 51.8705 10.8236 51.8361 10.9974 51.8335H15.2285C17.0153 51.8282 18.7277 51.1219 19.9937 49.868L29.867 40.049C31.6522 38.2757 34.7632 38.2757 36.5462 40.049L46.3842 49.8308C47.6504 51.0841 49.3629 51.7897 51.1494 51.7942H54.5825C54.7665 51.7955 54.9485 51.8319 55.1187 51.9017L62.6686 44.3932C63.5941 43.4732 64.3283 42.3808 64.8292 41.1784C65.3301 39.9761 65.5879 38.6874 65.5879 37.386C65.5879 36.0846 65.3301 34.7959 64.8292 33.5936C64.3283 32.3913 63.5941 31.2989 62.6686 30.3788" fill="#32BCAD"/>
<path d="M91.9662 61.9501C91.3422 61.9773 90.7228 62.0708 90.1188 62.2291V64.6761C90.5808 64.8372 91.0672 64.9183 91.5568 64.9159C92.7913 64.9159 93.3752 64.5025 93.3752 63.4216C93.3752 62.4048 92.8972 61.9501 91.9662 61.9501ZM89.7031 66.4969V61.6546H90.0419L90.0772 61.8612C90.7067 61.6949 91.3514 61.5917 92.0016 61.5533C92.4521 61.5219 92.8992 61.6508 93.263 61.917C93.6786 62.2601 93.8199 62.814 93.8199 63.4175C93.8199 64.021 93.6121 64.6451 93.0302 64.9737C92.5862 65.1941 92.0945 65.3026 91.5984 65.2899C91.0968 65.2868 90.5983 65.2109 90.1188 65.0647V66.4886L89.7031 66.4969Z" fill="#939598"/>
<path d="M96.9162 61.9356C95.6839 61.9356 95.1332 62.3201 95.1332 63.4009C95.1332 64.4446 95.6756 64.9159 96.9162 64.9159C98.1569 64.9159 98.6931 64.5356 98.6931 63.4568C98.6931 62.4131 98.1507 61.9356 96.9162 61.9356ZM98.504 64.9159C98.0883 65.2093 97.5439 65.2941 96.9162 65.2941C96.2886 65.2941 95.7255 65.2031 95.3244 64.9159C94.8734 64.5997 94.6885 64.0892 94.6885 63.4299C94.6885 62.7706 94.8734 62.2581 95.3244 61.9356C95.7255 61.6484 96.2762 61.5574 96.9162 61.5574C97.5563 61.5574 98.0946 61.6484 98.504 61.9356C98.9612 62.2581 99.1378 62.783 99.1378 63.4216C99.1378 64.0602 98.9549 64.5997 98.504 64.9159Z" fill="#939598"/>
<path d="M104.344 65.1948L102.968 62.258H102.941L101.586 65.1948H101.206L99.751 61.6545H100.208L101.428 64.6265H101.457L102.783 61.6545H103.163L104.522 64.6265H104.552L105.742 61.6545H106.193L104.726 65.1948H104.344Z" fill="#939598"/>
<path d="M108.843 61.9274C107.7 61.9274 107.314 62.4337 107.243 63.1674H110.443C110.408 62.3614 109.992 61.9274 108.843 61.9274ZM108.829 65.2941C108.145 65.2941 107.7 65.1949 107.347 64.9014C106.931 64.5438 106.792 64.0251 106.792 63.4299C106.792 62.8347 106.981 62.258 107.455 61.915C107.869 61.6558 108.354 61.5309 108.843 61.5574C109.341 61.5275 109.837 61.647 110.267 61.9005C110.78 62.2436 110.88 62.8471 110.88 63.5332H107.233C107.247 64.2628 107.486 64.9076 108.868 64.9076C109.486 64.8914 110.101 64.8222 110.707 64.7009V65.0729C110.091 65.1989 109.465 65.2715 108.837 65.2899" fill="#939598"/>
<path d="M112.074 65.1949V61.6546H112.411L112.446 61.8612C113.201 61.6711 113.554 61.5533 114.217 61.5533H114.267V61.946H114.167C113.61 61.946 113.271 62.0224 112.49 62.225V65.1907L112.074 65.1949Z" fill="#939598"/>
<path d="M116.682 61.9274C115.541 61.9274 115.152 62.4337 115.082 63.1674H118.282C118.247 62.3614 117.831 61.9274 116.682 61.9274ZM116.667 65.2941C115.984 65.2941 115.541 65.1949 115.188 64.9014C114.772 64.5438 114.631 64.0251 114.631 63.4299C114.631 62.8347 114.822 62.258 115.294 61.915C115.708 61.6563 116.193 61.5314 116.682 61.5574C117.18 61.5275 117.676 61.647 118.106 61.9005C118.621 62.2436 118.729 62.8471 118.729 63.5332H115.067C115.082 64.2628 115.321 64.9076 116.703 64.9076C117.321 64.8915 117.937 64.8223 118.544 64.7009V65.0729C117.928 65.1988 117.302 65.2714 116.674 65.2899" fill="#939598"/>
<path d="M123.276 62.1733C122.814 62.0129 122.328 61.9325 121.838 61.9357C120.604 61.9357 120.02 62.349 120.02 63.4299C120.02 64.4529 120.5 64.9014 121.429 64.9014C122.053 64.8727 122.672 64.7806 123.276 64.6265V62.1733ZM123.355 65.1949L123.318 64.9882C122.689 65.1564 122.044 65.2603 121.394 65.2982C120.942 65.332 120.494 65.2021 120.132 64.9324C119.717 64.5893 119.575 64.0355 119.575 63.434C119.575 62.8016 119.783 62.2064 120.365 61.884C120.81 61.6585 121.304 61.5477 121.803 61.5616C122.302 61.5684 122.798 61.6435 123.276 61.7848V60.1624H123.692V65.1949H123.355Z" fill="#939598"/>
<path d="M129.79 61.9501C129.166 61.9773 128.547 62.0709 127.943 62.2291V64.6699C128.404 64.8356 128.891 64.9189 129.381 64.9159C130.615 64.9159 131.199 64.5025 131.199 63.4216C131.199 62.4048 130.721 61.9501 129.79 61.9501ZM130.854 64.9779C130.411 65.1981 129.92 65.3066 129.425 65.2941C128.882 65.2907 128.344 65.2007 127.831 65.0275L127.81 65.1949H127.527V60.1624H127.943V61.8509C128.56 61.694 129.19 61.5957 129.826 61.5575C130.276 61.526 130.723 61.655 131.087 61.9212C131.503 62.2643 131.644 62.8182 131.644 63.4216C131.644 64.0251 131.436 64.6493 130.854 64.9779Z" fill="#939598"/>
<path d="M132.197 66.5486V66.1642C132.405 66.1848 132.592 66.1993 132.725 66.1993C133.24 66.1993 133.556 66.0505 133.839 65.4698L133.974 65.1887L132.104 61.6484H132.586L134.18 64.7051H134.207L135.722 61.6484H136.195L134.192 65.6248C133.826 66.346 133.431 66.5837 132.704 66.5837C132.532 66.5828 132.361 66.5711 132.191 66.5486" fill="#939598"/>
<path d="M141.937 63.1757H140.557V64.4157H141.937C142.889 64.4157 143.249 64.3103 143.249 63.7957C143.249 63.2418 142.754 63.1757 141.929 63.1757M141.68 61.1751H140.553V62.4358H141.688C142.625 62.4358 142.999 62.3242 142.999 61.7992C142.999 61.2371 142.525 61.1792 141.68 61.1792M143.824 64.8745C143.315 65.1969 142.702 65.2093 141.582 65.2093H139.473V60.3939H141.532C142.498 60.3939 143.091 60.4063 143.583 60.7018C143.747 60.7988 143.88 60.9395 143.967 61.1079C144.055 61.2763 144.093 61.4657 144.078 61.6546C144.078 62.1588 143.87 62.4957 143.315 62.721V62.7479C143.939 62.8884 144.338 63.2046 144.338 63.8846C144.353 64.0787 144.313 64.2734 144.222 64.446C144.132 64.6186 143.994 64.7621 143.824 64.8601" fill="#939598"/>
<path d="M148.555 63.7089C148.139 63.6737 147.723 63.653 147.272 63.653C146.547 63.653 146.292 63.7998 146.292 64.1305C146.292 64.4611 146.499 64.6058 147.06 64.6058C147.564 64.5893 148.065 64.5201 148.555 64.3991V63.7089ZM148.762 65.1948L148.735 64.9882C148.105 65.1648 147.457 65.2688 146.803 65.2982C146.425 65.3235 146.048 65.2326 145.724 65.0378C145.585 64.9214 145.477 64.7726 145.409 64.6046C145.342 64.4366 145.318 64.2547 145.338 64.075C145.359 63.8953 145.424 63.7234 145.527 63.5748C145.631 63.4262 145.77 63.3054 145.932 63.2232C146.306 63.0475 146.807 63.033 147.266 63.033C147.638 63.033 148.139 63.0537 148.555 63.0826V63.0186C148.555 62.4647 148.189 62.2828 147.187 62.2828C146.801 62.2828 146.327 62.3035 145.876 62.3448V61.6297C146.377 61.5884 146.942 61.5615 147.407 61.5615C148.031 61.5615 148.669 61.6091 149.07 61.8901C149.471 62.1712 149.556 62.5784 149.556 63.1033V65.199L148.762 65.1948Z" fill="#939598"/>
<path d="M154.199 65.1949V63.2418C154.199 62.597 153.868 62.3655 153.276 62.3655C152.785 62.3872 152.297 62.4621 151.821 62.5887V65.1969H150.828V61.6546H151.639L151.674 61.8798C152.294 61.6985 152.932 61.5902 153.578 61.5574C154.016 61.5226 154.451 61.6524 154.797 61.9212C155.078 62.1733 155.184 62.5247 155.184 63.0289V65.1949H154.199Z" fill="#939598"/>
<path d="M157.994 65.2941C157.534 65.2941 157.033 65.23 156.668 64.9221C156.231 64.5707 156.104 64.0189 156.104 63.4216C156.104 62.8615 156.287 62.2498 156.83 61.9067C157.274 61.6194 157.823 61.5574 158.395 61.5574C158.81 61.5574 159.205 61.5843 159.642 61.6256V62.3841C159.282 62.349 158.852 62.3221 158.507 62.3221C157.561 62.3221 157.117 62.6156 157.117 63.4299C157.117 64.1925 157.449 64.5232 158.224 64.5232C158.727 64.5069 159.227 64.446 159.718 64.3413V65.0688C159.15 65.2005 158.569 65.276 157.985 65.2941" fill="#939598"/>
<path d="M162.663 62.2994C161.717 62.2994 161.302 62.5949 161.302 63.4009C161.302 64.207 161.717 64.55 162.663 64.55C163.608 64.55 164.01 64.2628 164.01 63.4568C164.01 62.6507 163.608 62.2994 162.663 62.2994ZM164.369 64.9221C163.933 65.2155 163.361 65.2941 162.663 65.2941C161.965 65.2941 161.381 65.2093 160.951 64.9221C160.456 64.5997 160.279 64.0664 160.279 63.4299C160.279 62.7933 160.456 62.2498 160.951 61.9274C161.381 61.6401 161.95 61.5574 162.663 61.5574C163.376 61.5574 163.933 61.6401 164.369 61.9274C164.862 62.2498 165.032 62.7913 165.032 63.4216C165.032 64.052 164.855 64.5997 164.369 64.9221Z" fill="#939598"/>
<path d="M170.77 65.2941C170.171 65.2941 169.523 65.1949 169.037 64.796C168.459 64.3186 168.282 63.5828 168.282 62.7913C168.282 62.0824 168.509 61.2412 169.261 60.7514C169.847 60.3732 170.572 60.2947 171.306 60.2947C171.842 60.2947 172.393 60.3298 172.991 60.3794V61.2412C172.478 61.1999 171.842 61.1648 171.35 61.1648C169.974 61.1648 169.39 61.6835 169.39 62.7913C169.39 63.8991 169.932 64.424 170.946 64.424C171.671 64.3991 172.392 64.3029 173.097 64.1367V64.9923C172.333 65.168 171.554 65.2691 170.77 65.2941Z" fill="#939598"/>
<path d="M176.019 62.1878C175.188 62.1878 174.876 62.4833 174.812 63.0144H177.21C177.181 62.4399 176.842 62.1878 176.019 62.1878ZM175.869 65.2878C175.285 65.2878 174.755 65.2176 174.361 64.8952C173.966 64.5728 173.789 64.0189 173.789 63.4154C173.789 62.876 173.966 62.2725 174.46 61.9211C174.897 61.6132 175.454 61.5512 176.019 61.5512C176.526 61.5512 177.124 61.607 177.561 61.9087C178.132 62.3076 178.184 62.9256 178.184 63.6531H174.805C174.826 64.1945 175.115 64.5438 176.117 64.5438C176.753 64.53 177.387 64.4692 178.014 64.362V65.0564C177.306 65.19 176.589 65.2674 175.869 65.2878Z" fill="#939598"/>
<path d="M182.611 65.1949V63.2418C182.611 62.597 182.281 62.3655 181.688 62.3655C181.197 62.3872 180.709 62.4621 180.234 62.5887V65.1969H179.24V61.6546H180.051L180.086 61.8798C180.706 61.6985 181.345 61.5902 181.99 61.5574C182.428 61.5226 182.863 61.6524 183.209 61.9212C183.49 62.1733 183.596 62.5247 183.596 63.0289V65.1949H182.611Z" fill="#939598"/>
<path d="M186.429 65.294C185.949 65.294 185.513 65.1597 185.274 64.7877C185.078 64.4661 184.987 64.0923 185.012 63.7171V62.3903H184.293V61.6545H185.012L185.118 60.5819H185.995V61.6545H187.398V62.3903H185.995V63.527C185.982 63.7558 186.015 63.985 186.093 64.2007C186.199 64.4384 186.431 64.5294 186.743 64.5294C186.982 64.525 187.219 64.5015 187.454 64.4591V65.168C187.115 65.2408 186.771 65.283 186.425 65.294" fill="#939598"/>
<path d="M188.372 65.1949V61.6546H189.183L189.218 61.8799C189.786 61.6879 190.38 61.5793 190.98 61.5574C191.022 61.555 191.065 61.555 191.107 61.5574V62.4151C190.995 62.4151 190.86 62.4151 190.762 62.4151C190.291 62.4171 189.821 62.4782 189.365 62.597V65.2114L188.372 65.1949Z" fill="#939598"/>
<path d="M194.723 63.7089C194.307 63.6737 193.892 63.653 193.439 63.653C192.714 63.653 192.46 63.7998 192.46 64.1305C192.46 64.4611 192.668 64.6058 193.227 64.6058C193.732 64.5893 194.233 64.5201 194.723 64.3991V63.7089ZM194.931 65.1948L194.902 64.9882C194.272 65.1648 193.623 65.2688 192.969 65.2982C192.591 65.3235 192.215 65.2326 191.891 65.0378C191.76 64.938 191.655 64.8078 191.586 64.6587C191.518 64.5096 191.486 64.346 191.496 64.1821C191.486 63.9806 191.538 63.7809 191.646 63.6096C191.753 63.4383 191.91 63.3035 192.096 63.2232C192.47 63.0475 192.969 63.033 193.428 63.033C193.803 63.033 194.303 63.0537 194.719 63.0826V63.0186C194.719 62.4647 194.351 62.2828 193.352 62.2828C192.963 62.2828 192.491 62.3035 192.04 62.3448V61.6297C192.541 61.5884 193.104 61.5615 193.57 61.5615C194.193 61.5615 194.831 61.6091 195.232 61.8901C195.633 62.1712 195.719 62.5784 195.719 63.1033V65.199L194.931 65.1948Z" fill="#939598"/>
<path d="M196.992 60.1624H197.988V65.1949H196.992V60.1624Z" fill="#939598"/>
</g>
<defs>
<clipPath id="clip0_54_383">
<rect width="198" height="70" fill="white"/>
</clipPath>
</defs>
</svg>
